<?xml version="1.0" encoding="UTF-8"?>
<!DOCTYPE svg PUBLIC "-//W3C//DTD SVG 1.1//EN" "http://www.w3.org/Graphics/SVG/1.1/DTD/svg11.dtd">
<!-- Creator: CorelDRAW X6 -->
<svg xmlns="http://www.w3.org/2000/svg" xml:space="preserve" width="0.805551in" height="0.90278in" version="1.1" style="shape-rendering:geometricPrecision; text-rendering:geometricPrecision; image-rendering:optimizeQuality; fill-rule:evenodd; clip-rule:evenodd"
viewBox="0 0 806 903"
 xmlns:xlink="http://www.w3.org/1999/xlink">
 <defs>
  <style type="text/css">
   <![CDATA[
    .fil3 {fill:#99A8A8;fill-rule:nonzero}
    .fil1 {fill:#BEC3C7;fill-rule:nonzero}
    .fil2 {fill:#EDF1F1;fill-rule:nonzero}
    .fil0 {fill:#F1C52F;fill-rule:nonzero}
    .fil4 {fill:#F3A033;fill-rule:nonzero}
   ]]>
  </style>
 </defs>
 <g id="Layer_x0020_1">
  <metadata id="CorelCorpID_0Corel-Layer"/>
  <path class="fil0" d="M0 135l0 677c0,50 40,90 90,90l451 0c50,0 90,-41 90,-90l0 -677 -632 0z"/>
  <path class="fil1" d="M0 0l0 813c0,50 40,90 90,90l451 0c50,0 90,-40 90,-90l0 -813 -45 0 0 813c0,25 -20,45 -45,45l-451 0c-25,0 -45,-20 -45,-45l0 -813 -45 0z"/>
  <path class="fil2" d="M632 181l0 90 45 0c25,0 45,18 45,45l0 271c0,23 -20,45 -45,45l-45 0 0 90 90 0c50,0 90,-41 90,-90l0 -361c0,-50 -40,-90 -90,-90l-90 0z"/>
  <path class="fil1" d="M677 181c50,0 90,41 90,90l0 361c0,50 -40,90 -90,90l45 0c50,0 90,-41 90,-90l0 -361c0,-50 -40,-90 -90,-90l-45 0z"/>
  <path class="fil3" d="M0 767l0 45c0,50 40,90 90,90l451 0c50,0 90,-41 90,-90l0 -45c0,50 -40,90 -90,90l-451 0c-50,0 -90,-41 -90,-90z"/>
  <path class="fil4" d="M497 226c-25,0 -45,18 -45,45l0 497c0,23 20,45 45,45l0 -587zm-181 0c-25,0 -45,18 -45,45l0 497c0,23 20,45 45,45l0 -587zm-181 0c-25,0 -45,18 -45,45l0 497c0,23 20,45 45,45l0 -587z"/>
  <path class="fil2" d="M45 45l0 199c10,5 21,9 32,9 32,0 57,-23 65,-54 8,5 17,9 25,9 8,0 17,-5 24,-5 0,0 -1,0 -1,5 0,23 20,45 45,45 11,0 22,-5 30,-14 11,9 24,14 38,14 30,0 55,-23 63,-50l4 5c25,0 45,-23 45,-45 0,23 20,45 45,45 25,0 45,-23 45,-45l4 0c9,23 34,45 64,45 4,0 9,-5 13,-5l0 -158 -542 0z"/>
  <path class="fil2" d="M45 135l0 677c0,23 20,45 45,45l451 0c25,0 45,-23 45,-45l0 -677 -45 0 0 677 -451 0 0 -677 -45 0z"/>
 </g>
</svg>
