<?xml version="1.0" encoding="iso-8859-1"?>
<!-- Generator: Adobe Illustrator 19.0.0, SVG Export Plug-In . SVG Version: 6.00 Build 0)  -->
<svg version="1.1" id="Capa_1" xmlns="http://www.w3.org/2000/svg" xmlns:xlink="http://www.w3.org/1999/xlink" x="0px" y="0px"
	 viewBox="0 0 511.998 511.998" style="enable-background:new 0 0 511.998 511.998;" xml:space="preserve">
<path style="fill:#91DC5A;" d="M87.572,248.456c46.51,0,88.617-18.852,119.096-49.331c0,43.104,16.444,86.209,49.331,119.096l0,0
	l0,0c32.887-32.887,49.331-75.991,49.331-119.096c30.479,30.479,72.586,49.331,119.096,49.331l0,0l0,0
	c0-93.02-75.407-168.427-168.427-168.427l0,0l0,0l0,0l0,0C162.979,80.028,87.572,155.436,87.572,248.456L87.572,248.456
	L87.572,248.456z"/>
<g>
	<path style="fill:#C2FB3B;" d="M206.669,199.125c-20.877,20.877-47.21,36.295-76.675,43.94
		c-15.888,23.926-25.152,52.632-25.152,83.506l0,0l0,0c47.505,0,89.885-21.921,117.596-56.192
		C211.927,247.857,206.669,223.492,206.669,199.125z"/>
	<path style="fill:#C2FB3B;" d="M305.331,199.125c0,24.367-5.259,48.732-15.768,71.253c27.711,34.271,70.09,56.192,117.596,56.192
		l0,0l0,0c0-30.873-9.264-59.579-25.152-83.506C352.541,235.42,326.207,220.002,305.331,199.125z"/>
	<path style="fill:#C2FB3B;" d="M300.252,282.255c0.008,25.696-6.485,51.393-19.502,74.406c9.743,29.353,28.542,55.995,55.65,75.329
		l0,0l0,0c24.113-33.808,32.315-74.155,26.111-112.138C338.713,312.501,317.424,299.439,300.252,282.255z"/>
	<path style="fill:#C2FB3B;" d="M149.487,319.852c-6.205,37.982,1.998,78.329,26.111,112.138l0,0l0,0
		c27.108-19.334,45.907-45.975,55.65-75.328c-13.017-23.013-19.51-48.71-19.502-74.406
		C194.575,299.439,173.285,312.501,149.487,319.852z"/>
	<path style="fill:#C2FB3B;" d="M211.753,395.486c0.244,38.358,14.979,76.639,44.246,105.908l0,0l0,0
		c29.267-29.267,44.002-67.549,44.246-105.908c-8.41-12.046-14.951-25.134-19.495-38.826c0.073-0.13,0.14-0.262,0.213-0.392
		c-6.62,11.789-14.933,22.884-24.964,32.914l0,0l0,0c-10.03-10.03-18.343-21.123-24.962-32.911c0.072,0.129,0.139,0.26,0.212,0.389
		C226.704,370.352,220.163,383.44,211.753,395.486z"/>
</g>
<rect x="236.351" y="7.5" style="fill:#91DC5A;" width="39.29" height="72.53"/>
<path style="fill:#C2FB3B;" d="M289.562,270.379c0.076-0.163,0.146-0.328,0.221-0.491c-8.097,17.502-19.353,33.903-33.784,48.334
	l0,0l0,0c-14.431-14.431-25.686-30.832-33.784-48.334c0.076,0.163,0.145,0.328,0.221,0.491c-3.352,4.146-6.924,8.107-10.689,11.874
	c-0.015,38.699,14.724,77.402,44.251,106.93l0,0l0,0c29.527-29.527,44.266-68.23,44.251-106.93
	C296.486,278.486,292.915,274.525,289.562,270.379z"/>
<g>
	<path style="fill:#64C37D;" d="M271,80.701c-4.943-0.436-9.943-0.672-15-0.672l0,0l0,0l0,0l0,0
		c-93.02,0-168.427,75.407-168.427,168.427l0,0l0,0c10.251,0,20.288-0.918,30.034-2.673C118.957,159.035,185.882,88.215,271,80.701z
		"/>
	<path style="fill:#64C37D;" d="M236.669,199.125c-8.606,8.606-18.14,16.284-28.438,22.874
		c4.798,35.196,20.714,69.166,47.769,96.223l0,0l0,0c5.456-5.456,10.449-11.198,15-17.17
		C248.119,271.027,236.669,235.078,236.669,199.125z"/>
	<path style="fill:#64C37D;" d="M335.331,199.125c0,7.644-0.528,15.287-1.562,22.874c26.172,16.747,57.28,26.457,90.658,26.457l0,0
		l0,0c0-0.893-0.02-1.782-0.034-2.672C389.922,239.578,359.093,222.886,335.331,199.125z"/>
</g>
<g>
	<path style="fill:#91DC5A;" d="M159.993,243.065c17.319-4.493,33.543-11.69,48.225-21.085c-1.033-7.58-1.551-15.217-1.551-22.855
		c-20.877,20.877-47.21,36.295-76.675,43.94c-15.888,23.926-25.152,52.632-25.152,83.505l0,0l0,0
		c10.292,0,20.342-1.033,30.056-2.993C135.476,293.846,144.62,266.215,159.993,243.065z"/>
	<path style="fill:#91DC5A;" d="M319.562,270.379c7.216-15.462,11.955-31.794,14.218-48.398
		c-10.298-6.589-19.844-14.249-28.45-22.855c0,24.367-5.259,48.732-15.768,71.253c27.711,34.271,70.09,56.192,117.596,56.192l0,0
		l0,0c0-1.002-0.037-1.995-0.056-2.993C371.98,316.489,341.269,297.225,319.562,270.379z"/>
	<path style="fill:#91DC5A;" d="M310.75,356.66c9.24-16.336,15.175-34.026,17.849-52.106c-10.327-6.295-19.843-13.79-28.347-22.299
		c0.008,25.696-6.485,51.393-19.502,74.406c9.743,29.353,28.542,55.995,55.65,75.329l0,0l0,0c3.86-5.413,7.308-10.994,10.359-16.706
		C330.044,398.437,317.93,378.291,310.75,356.66z"/>
	<path style="fill:#91DC5A;" d="M179.488,319.852c12.013-3.711,23.385-8.88,33.912-15.298c-1.093-7.39-1.655-14.844-1.653-22.299
		c-17.172,17.184-38.461,30.247-62.259,37.597c-6.205,37.982,1.998,78.329,26.111,112.138l0,0l0,0
		c7.132-5.087,13.672-10.691,19.641-16.706C179.233,385.321,174.275,351.753,179.488,319.852z"/>
	<path style="fill:#91DC5A;" d="M271,371.687c4.488,6.11,9.474,11.969,15,17.495l0,0l0,0c2.148-2.148,4.2-4.354,6.191-6.595
		c-4.636-8.306-8.472-16.984-11.44-25.927c0.073-0.13,0.14-0.262,0.213-0.392C277.991,361.562,274.657,366.707,271,371.687z"/>
	<path style="fill:#91DC5A;" d="M241.753,395.486c2.917-4.178,5.593-8.488,8.055-12.899c-7.305-8.227-13.57-17.052-18.771-26.316
		c0.072,0.129,0.139,0.26,0.212,0.389c-4.545,13.692-11.085,26.78-19.495,38.826c0.244,38.358,14.979,76.639,44.246,105.908l0,0l0,0
		c5.517-5.517,10.516-11.354,15-17.452C251.694,457.691,241.951,426.615,241.753,395.486z"/>
</g>
<rect x="236.351" y="7.5" style="fill:#64C37D;" width="20" height="72.53"/>
<g>
	<path style="fill:#91DC5A;" d="M271,301.062c4.548,5.97,9.546,11.706,15,17.159l0,0l0,0c4.547-4.547,8.777-9.29,12.694-14.201
		c1.041-7.215,1.56-14.491,1.557-21.768c-3.765-3.768-7.336-7.728-10.688-11.874c0.076-0.163,0.146-0.328,0.221-0.491
		C284.746,280.775,278.485,291.236,271,301.062z"/>
	<path style="fill:#91DC5A;" d="M243.306,304.02c-8.515-10.675-15.544-22.145-21.09-34.133c0.076,0.163,0.145,0.328,0.221,0.491
		c-3.352,4.146-6.924,8.107-10.689,11.874c-0.015,38.699,14.724,77.402,44.251,106.93l0,0l0,0c5.516-5.516,10.516-11.353,15-17.451
		C255.994,351.33,246.765,328.012,243.306,304.02z"/>
</g>
<path d="M283.144,74.62V0h-54.29v74.62C144.69,87.711,80.072,160.679,80.072,248.456v7.5h7.5c41.511,0,80.826-14.279,112.338-40.515
	c3.73,40.833,21.434,78.73,50.786,108.083l5.303,5.303l5.303-5.303c29.353-29.353,47.056-67.249,50.786-108.083
	c31.511,26.236,70.826,40.515,112.338,40.514h7.5v-7.5C431.927,160.679,367.31,87.711,283.144,74.62z M243.855,72.528V15h24.29
	v57.528H243.855z M310.634,193.822l-12.803-12.804v18.107c0,40.417-14.797,78.557-41.832,108.237
	c-27.034-29.679-41.831-67.819-41.831-108.237v-18.106l-12.803,12.803c-28.577,28.577-66.012,45.083-106.113,46.956
	c4.02-85.186,74.583-153.249,160.747-153.249s156.727,68.062,160.747,153.249C376.646,238.905,339.211,222.399,310.634,193.822z"/>
<path d="M107.887,219.361l14.72,2.887c5.129-26.157,17.813-50.089,36.679-69.209l-10.677-10.535
	C127.666,163.727,113.585,190.305,107.887,219.361z"/>
<g>
	<path style="fill:#FFFFFF;" d="M239.169,199.125h-15c0,12.297,1.473,24.519,4.378,36.325l14.565-3.584
		C240.495,221.232,239.169,210.216,239.169,199.125z"/>
	<path style="fill:#FFFFFF;" d="M241.656,269.791c2.457,4.625,5.191,9.176,8.127,13.528l12.435-8.389
		c-2.643-3.917-5.104-8.014-7.314-12.176L241.656,269.791z"/>
	<path style="fill:#FFFFFF;" d="M245.697,240.976l-14.277,4.6c1.609,4.995,3.503,9.957,5.629,14.749l13.711-6.084
		C248.847,249.931,247.144,245.468,245.697,240.976z"/>
	<path style="fill:#FFFFFF;" d="M279.571,114.574c4.654,0.817,9.313,1.891,13.847,3.191l4.135-14.419
		c-5.039-1.445-10.216-2.638-15.388-3.546L279.571,114.574z"/>
	<path style="fill:#FFFFFF;" d="M255.999,112.529c4.736,0,9.511,0.247,14.192,0.735l1.555-14.919
		c-5.196-0.542-10.494-0.816-15.747-0.816V112.529z"/>
	<path style="fill:#FFFFFF;" d="M307.565,106.603l-5.138,14.093c39.56,14.423,70.699,46.996,83.298,87.131l14.312-4.492
		C386.051,158.775,351.482,122.614,307.565,106.603z"/>
	<path style="fill:#FFFFFF;" d="M336.751,395.643c7.721-18.444,11.116-37.962,10.091-58.013l-14.98,0.766
		c0.909,17.789-2.101,35.1-8.948,51.455L336.751,395.643z"/>
	<path style="fill:#FFFFFF;" d="M197.028,355.384c-5.03,11.891-11.914,22.783-20.46,32.373l11.199,9.979
		c9.641-10.819,17.404-23.102,23.076-36.509L197.028,355.384z"/>
</g>
<path d="M387.689,269.116c5.339,12.214,8.909,24.952,10.675,38.054l-44.7-44.7l-10.606,10.606l44.689,44.688
	c-29.238-3.96-56.565-16.826-78.45-37.206l-10.223,10.977c0.954,0.888,1.917,1.763,2.889,2.625l-9.646-0.743
	c-2.429,31.555-15.253,61.404-36.316,84.865c-8.89-9.902-16.313-20.943-22.105-32.77h9.94v-15h-16.261
	c-4.232-11.881-6.909-24.349-7.891-37.096l-9.645,0.743c0.972-0.862,1.935-1.737,2.888-2.625l-10.223-10.977
	c-9.577,8.919-20.198,16.399-31.564,22.323v-40.033h-15v46.783c-13.853,5.296-28.539,8.436-43.596,9.235
	c0.904-17.229,4.852-33.93,11.768-49.75l-13.744-6.009c-8.775,20.074-13.225,41.427-13.225,63.464v7.5h7.5
	c12.168,0,24.166-1.381,35.798-4.066c-3.453,37.782,6.612,75.155,28.853,106.34l4.355,6.106l6.106-4.355
	c9.441-6.733,18.017-14.367,25.642-22.783c4.494,34.508,20.13,66.413,45.101,91.385l5.303,5.303l5.303-5.303
	c24.971-24.971,40.607-56.876,45.101-91.385c7.625,8.416,16.201,16.05,25.642,22.783l6.106,4.355l4.355-6.106
	c22.24-31.183,32.306-68.557,28.852-106.34c11.632,2.685,23.63,4.066,35.798,4.066h7.5v-7.5c0-22.037-4.45-43.389-13.225-63.463
	L387.689,269.116z M177.397,421.247c-18.161-28.52-25.602-62.07-21.17-95.694c17.647-6.037,34.178-15.19,48.841-27.164
	c2.105,20.752,8.282,40.762,18.024,58.925C214.074,382.626,198.392,404.546,177.397,421.247z M263.5,481.456v-40.895h-15v40.896
	c-18.296-23.983-28.513-52.999-29.211-83.596c5.237-7.748,9.786-15.975,13.597-24.616c5.276,7.545,11.227,14.659,17.81,21.242
	l5.303,5.303l5.303-5.303c6.583-6.583,12.534-13.696,17.81-21.242c3.812,8.64,8.361,16.868,13.597,24.615
	C292.013,428.457,281.795,457.473,263.5,481.456z M334.602,421.247c-20.996-16.701-36.677-38.621-45.695-63.932
	c9.742-18.163,15.919-38.173,18.024-58.925c14.664,11.974,31.195,21.127,48.842,27.163
	C360.205,359.177,352.764,392.727,334.602,421.247z"/>
<g>
</g>
<g>
</g>
<g>
</g>
<g>
</g>
<g>
</g>
<g>
</g>
<g>
</g>
<g>
</g>
<g>
</g>
<g>
</g>
<g>
</g>
<g>
</g>
<g>
</g>
<g>
</g>
<g>
</g>
</svg>
