<svg height="512pt" viewBox="0 0 512 512" width="512pt" xmlns="http://www.w3.org/2000/svg"><path d="m512 256c0 141.386719-114.613281 256-256 256s-256-114.613281-256-256 114.613281-256 256-256 256 114.613281 256 256zm0 0" fill="#b46e5a"/><path d="m281.589844 510.730469c114.386718-11.351563 206.625-97.996094 226.457031-209.675781l-73.878906-73.875-46.199219 27.964843-170.175781-170.175781-89.964844 99.484375 49.574219 49.570313-123.359375 49.160156zm0 0" fill="#915041"/><path d="m344.378906 317.039062-89.792968-89.789062 52.777343-52.785156c20.441407-20.441406 53.585938-20.445313 74.03125 0l52.773438 52.769531zm0 0" fill="#feec65"/><path d="m381.390625 174.460938c-10.175781-10.175782-23.496094-15.28125-36.832031-15.324219v157.722656l89.609375-89.625zm0 0" fill="#fcd748"/><path d="m203.433594 202.832031h-31.886719c-33.800781 0-61.195313-27.398437-61.195313-61.195312v-32.167969h32.167969c33.796875 0 61.195313 27.398438 61.195313 61.195312zm0 0" fill="#5ed166"/><path d="m203.71875 170.664062c0-33.800781-27.402344-61.199218-61.199219-61.199218h-32.167969l93.082032 93.367187zm0 0" fill="#3f9e46"/><path d="m203.433594 202.832031-22.75-22.929687c-23.898438-23.898438-23.898438-62.644532 0-86.542969l22.75-22.75 22.746094 22.75c23.898437 23.898437 23.898437 62.644531 0 86.542969zm0 0" fill="#9dea60"/><path d="m226.179688 93.359375-22.679688-22.679687-.066406 132.15625 22.746094-22.929688c23.898437-23.902344 23.898437-62.648438 0-86.546875zm0 0" fill="#78c62e"/><path d="m54.042969 227.179688v56.003906h189.066406v63.878906c0 19.238281 15.59375 34.832031 34.832031 34.832031h121.390625c19.238281 0 34.832031-15.59375 34.832031-34.832031v-119.882812zm0 0" fill="#fff"/><path d="m254.921875 227.179688v146.011718c6.140625 5.414063 14.195313 8.703125 23.019531 8.703125h121.394532c19.234374 0 34.832031-15.59375 34.832031-34.832031v-119.882812zm0 0" fill="#e9edf5"/></svg>